<?xml version="1.0" standalone="no"?>
<!DOCTYPE svg PUBLIC "-//W3C//DTD SVG 20010904//EN"
 "http://www.w3.org/TR/2001/REC-SVG-20010904/DTD/svg10.dtd">
<svg version="1.0" xmlns="http://www.w3.org/2000/svg"
 width="260.000000pt" height="260.000000pt" viewBox="0 0 260.000000 260.000000"
 preserveAspectRatio="xMidYMid meet">
<metadata>
Created by potrace 1.11, written by Peter Selinger 2001-2013
</metadata>
<g transform="translate(0.000000,260.000000) scale(0.100000,-0.100000)"
fill="#000000" stroke="none">
<path d="M1519 1772 c-147 -87 -256 -217 -232 -279 3 -8 -7 -2 -23 13 -74 69
-209 78 -428 29 -39 -9 -81 -19 -93 -21 -13 -2 -23 -9 -23 -14 0 -6 10 -11 23
-11 17 -1 16 -3 -7 -8 -17 -3 -29 -10 -27 -15 2 -5 -4 -13 -13 -18 -9 -5 -14
-13 -11 -19 4 -5 1 -9 -4 -9 -19 0 -12 -30 7 -31 9 -1 4 -4 -13 -8 -16 -4 -29
-12 -28 -19 2 -7 -1 -12 -6 -12 -5 0 -11 -8 -15 -17 -3 -10 -9 -23 -12 -30 -3
-6 3 -13 13 -16 12 -3 8 -5 -9 -6 -18 -1 -28 -7 -28 -16 0 -8 -3 -15 -7 -15
-10 0 -34 -52 -28 -58 4 -5 115 15 220 39 28 6 118 12 200 13 142 1 153 0 206
-25 72 -34 99 -63 99 -107 0 -33 -1 -34 -18 -19 -10 9 -44 29 -77 44 -59 27
-64 28 -230 27 -152 -1 -185 -4 -315 -33 -173 -38 -280 -59 -280 -55 0 2 49
79 110 170 60 92 110 171 110 176 0 4 -17 8 -37 8 -36 0 -42 -6 -133 -118 -53
-64 -160 -194 -238 -288 -78 -95 -142 -177 -142 -183 0 -6 18 -11 43 -11 60 0
744 38 917 50 144 11 145 11 163 -11 17 -22 26 -23 145 -24 121 0 128 1 147
23 l20 23 145 -11 c173 -12 857 -50 918 -50 23 0 42 5 42 10 0 6 -106 140
-237 298 -229 278 -237 287 -275 290 -21 2 -38 1 -38 -2 0 -3 51 -84 114 -178
63 -95 113 -174 112 -175 -2 -2 -107 19 -281 58 -136 30 -166 33 -320 33 -166
1 -171 0 -230 -27 -33 -16 -68 -36 -77 -44 -17 -15 -18 -14 -18 6 0 58 24 112
70 158 49 50 166 121 235 143 22 7 44 16 49 21 6 5 18 9 28 9 10 0 18 7 18 15
0 8 -4 15 -10 15 -5 0 -7 7 -4 15 8 19 8 19 -57 -4 -58 -20 -129 -53 -194 -91
-23 -14 -34 -17 -25 -7 19 20 172 96 224 112 45 13 66 42 23 31 -14 -3 -33 -9
-43 -13 -11 -4 -15 -3 -11 5 4 6 21 13 37 17 32 7 41 25 14 25 -14 0 -14 3 -4
15 17 20 -3 20 -61 0 -24 -9 -39 -12 -34 -7 6 5 27 15 48 22 21 7 37 18 37 27
0 8 -6 13 -12 10 -38 -15 -50 -16 -25 -2 29 17 38 41 11 31 -14 -5 -15 -4 -4
9 19 23 7 27 -33 10 -21 -8 -37 -13 -37 -10 0 3 16 13 35 21 39 16 48 40 13
31 -19 -4 -20 -4 -7 5 23 16 2 60 -26 52 -18 -4 -18 -4 -2 6 20 13 23 30 5 29
-7 0 -34 -12 -59 -27z m1 -37 c0 -2 -13 -11 -30 -20 -38 -19 -40 -11 -2 9 31
17 32 18 32 11z m28 -20 c-26 -14 -49 -29 -53 -35 -3 -5 -11 -10 -17 -10 -6 0
0 8 13 19 30 23 81 50 94 50 6 0 -11 -11 -37 -24z m7 -35 c-3 -5 -11 -10 -16
-10 -6 0 -7 5 -4 10 3 6 11 10 16 10 6 0 7 -4 4 -10z m-95 -14 c0 -2 -8 -10
-17 -17 -16 -13 -17 -12 -4 4 13 16 21 21 21 13z m90 -21 c0 -6 -56 -35 -67
-35 -4 1 8 9 27 20 39 22 40 22 40 15z m50 -15 c-8 -5 -19 -10 -25 -10 -5 0
-3 5 5 10 8 5 20 10 25 10 6 0 3 -5 -5 -10z m-140 -4 c0 -2 -7 -7 -16 -10 -8
-3 -12 -2 -9 4 6 10 25 14 25 6z m100 -10 c0 -2 -7 -7 -16 -10 -8 -3 -12 -2
-9 4 6 10 25 14 25 6z m26 -25 c-6 -10 -66 -33 -66 -26 0 3 15 11 33 19 40 18
39 18 33 7z m-136 -6 c0 -2 -10 -9 -22 -15 -22 -11 -22 -10 -4 4 21 17 26 19
26 11z m59 1 c-2 -2 -15 -9 -29 -15 -24 -11 -24 -11 -6 3 16 13 49 24 35 12z
m47 -45 c-6 -10 -66 -33 -66 -26 0 3 15 11 33 19 40 18 39 18 33 7z m93 5 c-2
-2 -29 -14 -59 -26 -30 -12 -51 -18 -47 -13 5 4 27 16 50 25 41 16 65 22 56
14z m-542 -13 c-20 -2 -52 -2 -70 0 -17 2 0 4 38 4 39 0 53 -2 32 -4z m-139
-10 c-10 -2 -26 -2 -35 0 -10 3 -2 5 17 5 19 0 27 -2 18 -5z m256 -13 c7 -7 1
-7 -19 -1 -54 17 -61 21 -25 16 19 -3 39 -10 44 -15z m231 10 c-3 -5 -12 -10
-18 -10 -7 0 -6 4 3 10 19 12 23 12 15 0z m-562 -7 c-7 -2 -19 -2 -25 0 -7 3
-2 5 12 5 14 0 19 -2 13 -5z m195 -10 c-10 -2 -26 -2 -35 0 -10 3 -2 5 17 5
19 0 27 -2 18 -5z m107 -18 c39 -17 21 -18 -25 0 -19 7 -28 14 -20 14 8 0 29
-6 45 -14z m411 8 c-9 -9 -96 -42 -96 -37 0 6 81 42 94 43 5 1 6 -2 2 -6z
m-693 -10 c-7 -2 -21 -2 -30 0 -10 3 -4 5 12 5 17 0 24 -2 18 -5z m547 3 c0
-2 -7 -7 -16 -10 -8 -3 -12 -2 -9 4 6 10 25 14 25 6z m45 -6 c-3 -5 -12 -10
-18 -10 -7 0 -6 4 3 10 19 12 23 12 15 0z m-662 -7 c-7 -2 -19 -2 -25 0 -7 3
-2 5 12 5 14 0 19 -2 13 -5z m245 0 c-15 -2 -42 -2 -60 0 -18 2 -6 4 27 4 33
0 48 -2 33 -4z m-130 -10 c-10 -2 -26 -2 -35 0 -10 3 -2 5 17 5 19 0 27 -2 18
-5z m222 -3 c11 -7 5 -8 -20 -4 -43 8 -51 14 -19 14 13 0 31 -5 39 -10z m80
-46 c0 -2 -13 2 -30 11 -16 9 -30 18 -30 21 0 2 14 -2 30 -11 17 -9 30 -18 30
-21z m240 32 c0 -2 -16 -13 -35 -25 -19 -11 -35 -17 -35 -12 0 4 15 15 33 24
37 18 37 18 37 13z m150 -8 c-148 -64 -200 -93 -266 -147 -16 -15 -11 -8 12
15 41 40 147 102 221 129 45 16 69 18 33 3z m-853 -4 c-3 -3 -12 -4 -19 -1 -8
3 -5 6 6 6 11 1 17 -2 13 -5z m375 -4 c21 -6 40 -16 44 -21 3 -6 -4 -5 -17 2
-14 8 -76 16 -149 19 l-125 7 105 1 c58 1 122 -3 142 -8z m-439 -7 c-7 -2 -19
-2 -25 0 -7 3 -2 5 12 5 14 0 19 -2 13 -5z m160 0 c-7 -2 -21 -2 -30 0 -10 3
-4 5 12 5 17 0 24 -2 18 -5z m205 -20 c-10 -2 -26 -2 -35 0 -10 3 -2 5 17 5
19 0 27 -2 18 -5z m97 -18 l30 -14 -30 6 c-16 3 -37 9 -45 14 -27 15 11 10 45
-6z m220 5 c-3 -5 -16 -15 -28 -21 -21 -10 -21 -9 2 10 25 23 36 27 26 11z
m-572 -7 c-7 -2 -21 -2 -30 0 -10 3 -4 5 12 5 17 0 24 -2 18 -5z m-60 -10 c-7
-2 -21 -2 -30 0 -10 3 -4 5 12 5 17 0 24 -2 18 -5z m357 -2 c14 -4 -27 -6 -90
-4 -151 5 -172 11 -40 11 58 0 116 -3 130 -7z m-253 -7 c-3 -3 -12 -4 -19 -1
-8 3 -5 6 6 6 11 1 17 -2 13 -5z m319 -20 c18 -14 18 -14 -6 -3 -31 14 -36 19
-24 19 6 0 19 -7 30 -16z m204 13 c0 -2 -10 -12 -22 -23 l-23 -19 19 23 c18
21 26 27 26 19z m-367 -14 c-7 -2 -21 -2 -30 0 -10 3 -4 5 12 5 17 0 24 -2 18
-5z m-310 -10 c-7 -2 -19 -2 -25 0 -7 3 -2 5 12 5 14 0 19 -2 13 -5z m190 0
c-13 -2 -33 -2 -45 0 -13 2 -3 4 22 4 25 0 35 -2 23 -4z m264 -13 c15 -9 14
-10 -7 -4 -13 4 -47 10 -75 15 l-50 8 57 -4 c31 -2 65 -9 75 -15z m-514 3 c-7
-2 -19 -2 -25 0 -7 3 -2 5 12 5 14 0 19 -2 13 -5z m160 0 c-7 -2 -21 -2 -30 0
-10 3 -4 5 12 5 17 0 24 -2 18 -5z m210 -10 c-13 -2 -33 -2 -45 0 -13 2 -3 4
22 4 25 0 35 -2 23 -4z m70 -10 c-7 -2 -19 -2 -25 0 -7 3 -2 5 12 5 14 0 19
-2 13 -5z m92 -23 c14 -5 25 -12 25 -14 0 -5 -92 24 -100 32 -6 6 41 -5 75
-18z m-422 3 c-7 -2 -21 -2 -30 0 -10 3 -4 5 12 5 17 0 24 -2 18 -5z m-70 -10
c-7 -2 -19 -2 -25 0 -7 3 -2 5 12 5 14 0 19 -2 13 -5z m419 -1 c10 -4 -40 -6
-110 -4 -180 4 -201 9 -42 10 74 0 143 -2 152 -6z m68 -27 c14 -8 21 -14 15
-14 -5 0 -21 6 -35 14 -14 8 -20 14 -15 14 6 0 21 -6 35 -14z m-527 -12 c-7
-2 -21 -2 -30 0 -10 3 -4 5 12 5 17 0 24 -2 18 -5z m-66 -9 c-3 -3 -12 -4 -19
-1 -8 3 -5 6 6 6 11 1 17 -2 13 -5z m644 -11 c13 -16 12 -17 -3 -4 -10 7 -18
15 -18 17 0 8 8 3 21 -13z m-172 -113 c74 -13 169 -58 196 -94 11 -14 23 -26
28 -26 4 0 22 15 40 33 82 81 210 108 414 88 71 -6 153 -19 183 -26 30 -8 42
-13 25 -11 -225 30 -368 32 -465 7 -44 -12 -147 -77 -137 -87 3 -3 32 8 65 25
78 39 173 55 287 46 99 -8 254 -31 263 -39 8 -8 1 -8 -123 9 -117 16 -223 19
-274 9 -58 -12 -32 -24 52 -24 45 -1 127 -9 182 -19 191 -36 325 -64 321 -68
-4 -4 -81 9 -256 43 -49 9 -142 17 -220 18 -129 1 -138 0 -192 -27 -31 -15
-59 -34 -62 -42 -4 -12 -10 -12 -40 0 -43 18 -81 18 -121 1 -27 -11 -33 -10
-73 20 -23 18 -59 37 -80 41 -59 13 -269 6 -362 -12 -191 -36 -252 -46 -256
-42 -4 4 130 32 321 68 55 10 137 18 183 19 83 0 109 12 51 24 -61 12 -239 2
-369 -21 -19 -3 -32 -3 -29 1 10 10 158 33 264 41 114 9 209 -7 287 -46 68
-35 85 -33 36 4 -102 76 -241 94 -482 62 -122 -16 -151 -14 -54 4 155 30 297
37 397 21z m-474 -100 c-11 -5 -31 -8 -45 -8 -23 0 -22 1 5 8 42 11 65 11 40
0z m1464 -6 c9 -8 -45 -2 -64 6 -14 7 -8 8 20 3 22 -3 42 -7 44 -9z"/>
<path d="M1769 1514 c6 -10 15 -31 21 -46 7 -21 17 -28 37 -29 l28 -1 -30 -7
c-20 -4 -26 -9 -17 -14 21 -14 14 -37 -13 -37 -14 0 -25 -5 -25 -11 0 -7 -11
-9 -27 -6 -29 5 -53 0 -53 -13 0 -5 12 -11 28 -13 15 -2 1 -2 -30 0 -61 5 -90
-3 -67 -18 9 -6 -3 -9 -32 -9 -29 0 -51 -6 -59 -15 -11 -13 3 -15 116 -17
l129 -2 -152 -5 c-100 -4 -156 -10 -164 -18 -20 -21 -6 -23 62 -12 101 17 258
4 442 -36 42 -9 85 -15 94 -13 15 3 15 4 -1 21 -10 9 -14 17 -9 17 4 0 1 6 -8
13 -9 7 -16 17 -17 22 0 6 -11 13 -24 17 -16 4 -18 6 -5 7 21 1 22 17 1 29 -9
5 -16 11 -15 13 0 2 -2 14 -5 27 -5 16 -14 22 -38 23 -23 1 -25 3 -8 6 28 6
28 14 -1 45 -13 14 -21 30 -19 36 2 7 -9 13 -30 13 -23 1 -26 3 -10 6 12 2 22
8 22 13 0 11 -22 18 -81 26 -48 6 -50 6 -40 -12z m134 -91 c-7 -2 -19 -2 -25
0 -7 3 -2 5 12 5 14 0 19 -2 13 -5z m-40 -50 c-7 -2 -19 -2 -25 0 -7 3 -2 5
12 5 14 0 19 -2 13 -5z m44 -39 c-3 -3 -12 -4 -19 -1 -8 3 -5 6 6 6 11 1 17
-2 13 -5z m-94 -11 c-7 -2 -19 -2 -25 0 -7 3 -2 5 12 5 14 0 19 -2 13 -5z
m154 1 c-3 -3 -12 -4 -19 -1 -8 3 -5 6 6 6 11 1 17 -2 13 -5z m-104 -41 c-7
-2 -21 -2 -30 0 -10 3 -4 5 12 5 17 0 24 -2 18 -5z m60 -10 c-7 -2 -19 -2 -25
0 -7 3 -2 5 12 5 14 0 19 -2 13 -5z m50 -40 c-7 -2 -19 -2 -25 0 -7 3 -2 5 12
5 14 0 19 -2 13 -5z m54 -9 c-3 -3 -12 -4 -19 -1 -8 3 -5 6 6 6 11 1 17 -2 13
-5z"/>
</g>
</svg>
