<?xml version="1.0" standalone="no"?>
<!DOCTYPE svg PUBLIC "-//W3C//DTD SVG 20010904//EN"
 "http://www.w3.org/TR/2001/REC-SVG-20010904/DTD/svg10.dtd">
<svg version="1.0" xmlns="http://www.w3.org/2000/svg"
 width="268.000000pt" height="268.000000pt" viewBox="0 0 268.000000 268.000000"
 preserveAspectRatio="xMidYMid meet">
<metadata>
Created by potrace 1.11, written by Peter Selinger 2001-2013
</metadata>
<g transform="translate(0.000000,268.000000) scale(0.100000,-0.100000)"
fill="#000000" stroke="none">
<path d="M1555 1964 c-134 -81 -208 -167 -208 -244 0 -49 -15 -55 -59 -24 -33
23 -123 45 -178 43 -14 -1 12 -7 57 -14 76 -12 133 -38 155 -69 13 -20 0 -17
-36 8 -36 24 -121 45 -133 32 -4 -3 5 -6 19 -6 38 0 109 -28 135 -52 27 -25
32 -49 5 -25 -30 27 -105 57 -142 56 -31 -1 -29 -2 14 -10 62 -10 141 -58 142
-86 1 -11 4 -25 8 -32 4 -6 3 -11 -2 -11 -9 0 -8 -47 2 -57 2 -3 1 -15 -4 -28
-5 -14 -5 -26 3 -34 21 -21 -8 -11 -51 18 -55 38 -119 51 -245 51 -130 0 -407
-43 -407 -63 0 -5 8 -6 18 -3 208 61 497 75 594 27 72 -35 98 -63 98 -110 l0
-40 -55 34 c-62 37 -144 55 -251 55 -86 0 -227 -16 -319 -36 -314 -68 -306
-68 -260 1 18 28 69 105 113 173 l81 122 -32 0 c-36 0 -3 36 -361 -402 -75
-92 -136 -170 -136 -174 0 -3 35 -3 78 0 42 4 205 13 362 21 157 8 363 20 459
27 l174 12 17 -22 c17 -21 27 -22 144 -22 118 0 126 1 137 21 10 20 16 21 103
16 50 -4 258 -15 461 -26 204 -11 405 -23 448 -27 42 -3 77 -2 77 2 0 5 -61
83 -136 174 -75 91 -179 218 -231 283 -82 101 -99 117 -124 117 l-29 0 23 -37
c13 -21 63 -98 111 -170 47 -73 86 -135 86 -139 0 -10 -93 4 -210 32 -303 72
-544 70 -656 -5 -45 -31 -54 -30 -54 3 0 108 132 237 304 296 60 20 100 40 94
46 -5 5 -128 -45 -204 -84 -33 -17 -87 -56 -120 -86 -32 -31 -60 -56 -61 -56
-12 0 3 24 36 58 49 50 125 99 216 139 128 56 125 54 90 48 -58 -10 -238 -108
-289 -157 -27 -26 -52 -46 -54 -43 -8 8 49 69 97 104 50 37 221 121 246 121 8
0 15 5 15 10 0 6 -16 3 -37 -6 -21 -8 -56 -23 -78 -32 -64 -26 -147 -77 -194
-121 -24 -23 -47 -38 -50 -35 -3 3 19 29 50 58 57 53 181 124 257 147 23 7 42
15 42 19 0 10 -102 -29 -175 -67 -33 -17 -81 -49 -107 -72 -25 -23 -48 -41
-51 -41 -2 0 -4 10 -3 22 1 12 9 22 20 24 10 1 28 11 40 21 47 42 142 94 245
134 13 5 21 12 18 15 -10 10 -189 -81 -247 -125 -30 -23 -56 -37 -58 -31 -2 6
-7 8 -11 6 -4 -3 -7 29 -6 71 l1 76 42 37 c23 21 42 41 42 46 0 4 -18 -10 -40
-31 -22 -21 -40 -34 -40 -28 0 17 92 97 163 143 57 36 76 50 65 50 -2 0 -30
-16 -63 -36z m-350 -653 c32 -12 80 -39 105 -60 l45 -38 45 38 c26 23 73 49
110 61 95 34 267 31 450 -6 271 -55 352 -88 110 -46 -63 12 -140 25 -170 30
-30 6 -109 10 -176 11 -120 0 -174 -10 -246 -47 -49 -25 -30 -23 35 4 56 23
74 26 192 25 108 0 155 -6 280 -33 83 -18 178 -38 213 -45 35 -7 66 -16 70
-20 10 -11 -94 3 -238 32 -82 16 -169 26 -255 28 -120 3 -123 3 -44 -5 76 -7
240 -38 379 -71 25 -6 92 -19 150 -29 89 -15 97 -18 55 -19 -46 -1 -213 24
-430 64 -101 18 -287 19 -338 1 -20 -8 -53 -26 -72 -40 -28 -22 -39 -25 -54
-16 -27 14 -104 13 -136 -2 -23 -10 -28 -10 -36 5 -6 9 -29 27 -52 40 -38 20
-55 22 -192 22 -115 0 -175 -6 -255 -22 -153 -32 -312 -55 -356 -51 -31 2 -23
6 45 16 47 8 168 32 270 54 102 22 224 44 271 48 78 8 74 8 -45 5 -86 -2 -173
-12 -255 -28 -144 -29 -248 -43 -238 -32 4 4 35 13 70 20 35 7 131 27 213 45
125 27 172 33 280 33 118 1 136 -2 193 -25 34 -15 62 -25 62 -22 0 7 -76 42
-118 53 -51 14 -255 15 -332 1 -30 -5 -107 -18 -170 -30 -63 -11 -126 -20
-140 -19 -48 2 174 53 385 89 86 15 253 5 320 -19z"/>
<path d="M1564 1934 c-32 -19 -66 -42 -74 -51 -9 -10 0 -7 20 6 19 12 56 33
83 47 44 23 57 34 39 34 -5 0 -35 -16 -68 -36z"/>
<path d="M1580 1907 c-86 -50 -138 -87 -144 -104 -4 -9 4 -6 22 9 47 39 74 57
137 93 33 19 56 34 50 34 -5 0 -35 -15 -65 -32z"/>
<path d="M1584 1874 c-64 -34 -183 -120 -185 -133 0 -3 -2 -16 -3 -29 l-3 -23
26 24 c14 13 36 33 48 44 13 10 64 41 114 67 49 27 88 50 86 52 -7 8 -141 -66
-196 -107 -50 -38 -69 -46 -53 -23 15 21 90 73 165 113 68 38 87 51 73 51 -2
0 -35 -16 -72 -36z"/>
<path d="M1600 1812 c-75 -38 -170 -99 -170 -108 0 -7 17 3 55 31 41 30 165
95 182 95 7 0 13 5 13 10 0 13 5 15 -80 -28z"/>
<path d="M1583 1767 c-56 -28 -121 -69 -145 -90 l-43 -39 50 36 c68 49 140 89
198 111 26 10 47 22 47 26 0 12 7 15 -107 -44z"/>
<path d="M1399 1773 c-13 -16 -12 -17 4 -4 9 7 17 15 17 17 0 8 -8 3 -21 -13z"/>
<path d="M965 1750 c-49 -10 -107 -21 -129 -24 -21 -4 -36 -9 -34 -12 3 -2 66
7 141 21 75 14 163 25 196 25 61 0 136 -25 176 -58 13 -11 12 -8 -4 10 -51 59
-176 72 -346 38z"/>
<path d="M1816 1731 c5 -5 32 -11 59 -14 29 -3 41 -2 30 2 -31 12 -99 21 -89
12z"/>
<path d="M1013 1723 c15 -2 37 -2 50 0 12 2 0 4 -28 4 -27 0 -38 -2 -22 -4z"/>
<path d="M933 1713 c9 -2 25 -2 35 0 9 3 1 5 -18 5 -19 0 -27 -2 -17 -5z"/>
<path d="M1028 1693 c12 -2 30 -2 40 0 9 3 -1 5 -23 4 -22 0 -30 -2 -17 -4z"/>
<path d="M793 1683 c9 -2 25 -2 35 0 9 3 1 5 -18 5 -19 0 -27 -2 -17 -5z"/>
<path d="M953 1683 c9 -2 25 -2 35 0 9 3 1 5 -18 5 -19 0 -27 -2 -17 -5z"/>
<path d="M1399 1673 c-13 -16 -12 -17 4 -4 16 13 21 21 13 21 -2 0 -10 -8 -17
-17z"/>
<path d="M1893 1683 c9 -2 23 -2 30 0 6 3 -1 5 -18 5 -16 0 -22 -2 -12 -5z"/>
<path d="M883 1673 c9 -2 25 -2 35 0 9 3 1 5 -18 5 -19 0 -27 -2 -17 -5z"/>
<path d="M828 1663 c6 -2 18 -2 25 0 6 3 1 5 -13 5 -14 0 -19 -2 -12 -5z"/>
<path d="M1003 1663 c15 -2 37 -2 50 0 12 2 0 4 -28 4 -27 0 -38 -2 -22 -4z"/>
<path d="M1108 1663 c7 -3 16 -2 19 1 4 3 -2 6 -13 5 -11 0 -14 -3 -6 -6z"/>
<path d="M1858 1663 c6 -2 18 -2 25 0 6 3 1 5 -13 5 -14 0 -19 -2 -12 -5z"/>
<path d="M778 1653 c7 -3 16 -2 19 1 4 3 -2 6 -13 5 -11 0 -14 -3 -6 -6z"/>
<path d="M1920 1656 c0 -2 7 -6 15 -10 8 -3 15 -1 15 4 0 6 -7 10 -15 10 -8 0
-15 -2 -15 -4z"/>
<path d="M838 1633 c6 -2 18 -2 25 0 6 3 1 5 -13 5 -14 0 -19 -2 -12 -5z"/>
<path d="M1110 1630 c102 -7 148 -18 180 -43 9 -7 6 -2 -6 10 -30 28 -106 43
-202 41 -77 -1 -76 -1 28 -8z"/>
<path d="M1858 1633 c7 -3 16 -2 19 1 4 3 -2 6 -13 5 -11 0 -14 -3 -6 -6z"/>
<path d="M783 1623 c9 -2 23 -2 30 0 6 3 -1 5 -18 5 -16 0 -22 -2 -12 -5z"/>
<path d="M938 1623 c12 -2 30 -2 40 0 9 3 -1 5 -23 4 -22 0 -30 -2 -17 -4z"/>
<path d="M1903 1623 c9 -2 23 -2 30 0 6 3 -1 5 -18 5 -16 0 -22 -2 -12 -5z"/>
<path d="M873 1613 c9 -2 23 -2 30 0 6 3 -1 5 -18 5 -16 0 -22 -2 -12 -5z"/>
<path d="M1958 1613 c7 -3 16 -2 19 1 4 3 -2 6 -13 5 -11 0 -14 -3 -6 -6z"/>
<path d="M813 1603 c9 -2 23 -2 30 0 6 3 -1 5 -18 5 -16 0 -22 -2 -12 -5z"/>
<path d="M993 1603 c15 -2 39 -2 55 0 15 2 2 4 -28 4 -30 0 -43 -2 -27 -4z"/>
<path d="M1093 1603 c9 -2 23 -2 30 0 6 3 -1 5 -18 5 -16 0 -22 -2 -12 -5z"/>
<path d="M1148 1603 c6 -2 18 -2 25 0 6 3 1 5 -13 5 -14 0 -19 -2 -12 -5z"/>
<path d="M1878 1603 c6 -2 18 -2 25 0 6 3 1 5 -13 5 -14 0 -19 -2 -12 -5z"/>
<path d="M1210 1589 c14 -7 42 -20 62 -29 21 -9 35 -13 32 -8 -7 11 -54 32
-94 42 l-25 6 25 -11z"/>
<path d="M733 1583 c9 -2 23 -2 30 0 6 3 -1 5 -18 5 -16 0 -22 -2 -12 -5z"/>
<path d="M883 1583 c9 -2 23 -2 30 0 6 3 -1 5 -18 5 -16 0 -22 -2 -12 -5z"/>
<path d="M1840 1581 c8 -5 42 -12 75 -15 55 -5 56 -5 15 4 -87 18 -106 20 -90
11z"/>
<path d="M1958 1583 c6 -2 18 -2 25 0 6 3 1 5 -13 5 -14 0 -19 -2 -12 -5z"/>
<path d="M823 1573 c9 -2 23 -2 30 0 6 3 -1 5 -18 5 -16 0 -22 -2 -12 -5z"/>
<path d="M1080 1571 c52 -4 111 -11 130 -15 29 -6 32 -5 16 5 -10 6 -68 13
-130 14 l-111 3 95 -7z"/>
<path d="M763 1563 c9 -2 23 -2 30 0 6 3 -1 5 -18 5 -16 0 -22 -2 -12 -5z"/>
<path d="M918 1563 c12 -2 32 -2 45 0 12 2 2 4 -23 4 -25 0 -35 -2 -22 -4z"/>
<path d="M1763 1563 c9 -2 25 -2 35 0 9 3 1 5 -18 5 -19 0 -27 -2 -17 -5z"/>
<path d="M708 1553 c6 -2 18 -2 25 0 6 3 1 5 -13 5 -14 0 -19 -2 -12 -5z"/>
<path d="M853 1553 c9 -2 23 -2 30 0 6 3 -1 5 -18 5 -16 0 -22 -2 -12 -5z"/>
<path d="M1833 1553 c9 -2 23 -2 30 0 6 3 -1 5 -18 5 -16 0 -22 -2 -12 -5z"/>
<path d="M1988 1553 c7 -3 16 -2 19 1 4 3 -2 6 -13 5 -11 0 -14 -3 -6 -6z"/>
<path d="M1033 1543 c9 -2 23 -2 30 0 6 3 -1 5 -18 5 -16 0 -22 -2 -12 -5z"/>
<path d="M1275 1526 c17 -14 35 -25 40 -25 11 0 -20 25 -50 41 -11 5 -6 -2 10
-16z"/>
<path d="M1683 1543 c9 -2 25 -2 35 0 9 3 1 5 -18 5 -19 0 -27 -2 -17 -5z"/>
<path d="M943 1533 c9 -2 23 -2 30 0 6 3 -1 5 -18 5 -16 0 -22 -2 -12 -5z"/>
<path d="M1748 1533 c6 -2 18 -2 25 0 6 3 1 5 -13 5 -14 0 -19 -2 -12 -5z"/>
<path d="M718 1523 c6 -2 18 -2 25 0 6 3 1 5 -13 5 -14 0 -19 -2 -12 -5z"/>
<path d="M873 1523 c9 -2 25 -2 35 0 9 3 1 5 -18 5 -19 0 -27 -2 -17 -5z"/>
<path d="M1228 1515 c24 -7 53 -22 65 -32 21 -18 21 -18 7 1 -17 21 -70 46
-97 45 -10 0 1 -6 25 -14z"/>
<path d="M1813 1523 c9 -2 25 -2 35 0 9 3 1 5 -18 5 -19 0 -27 -2 -17 -5z"/>
<path d="M1968 1523 c6 -2 18 -2 25 0 6 3 1 5 -13 5 -14 0 -19 -2 -12 -5z"/>
<path d="M803 1513 c9 -2 25 -2 35 0 9 3 1 5 -18 5 -19 0 -27 -2 -17 -5z"/>
<path d="M1072 1510 c48 -4 102 -11 120 -14 30 -6 31 -5 9 4 -14 6 -68 13
-120 15 l-96 4 87 -9z"/>
<path d="M1586 1512 c-3 -5 23 -6 57 -4 87 5 94 10 15 11 -37 1 -69 -3 -72 -7z"/>
<path d="M1883 1513 c9 -2 23 -2 30 0 6 3 -1 5 -18 5 -16 0 -22 -2 -12 -5z"/>
<path d="M743 1503 c9 -2 23 -2 30 0 6 3 -1 5 -18 5 -16 0 -22 -2 -12 -5z"/>
<path d="M913 1503 c15 -2 37 -2 50 0 12 2 0 4 -28 4 -27 0 -38 -2 -22 -4z"/>
<path d="M1753 1503 c15 -2 37 -2 50 0 12 2 0 4 -28 4 -27 0 -38 -2 -22 -4z"/>
<path d="M1943 1503 c9 -2 23 -2 30 0 6 3 -1 5 -18 5 -16 0 -22 -2 -12 -5z"/>
<path d="M1230 1485 c0 -1 19 -13 42 -25 28 -14 38 -17 29 -7 -11 14 -71 41
-71 32z"/>
<path d="M758 1473 c6 -2 18 -2 25 0 6 3 1 5 -13 5 -14 0 -19 -2 -12 -5z"/>
<path d="M1530 1471 c-14 -4 27 -6 92 -3 126 5 261 -8 384 -38 43 -11 80 -17
82 -15 8 8 -130 39 -243 55 -81 11 -278 12 -315 1z"/>
<path d="M1933 1473 c9 -2 23 -2 30 0 6 3 -1 5 -18 5 -16 0 -22 -2 -12 -5z"/>
<path d="M703 1463 c9 -2 23 -2 30 0 6 3 -1 5 -18 5 -16 0 -22 -2 -12 -5z"/>
<path d="M1993 1463 c9 -2 23 -2 30 0 6 3 -1 5 -18 5 -16 0 -22 -2 -12 -5z"/>
<path d="M658 1453 c7 -3 16 -2 19 1 4 3 -2 6 -13 5 -11 0 -14 -3 -6 -6z"/>
<path d="M2048 1453 c7 -3 16 -2 19 1 4 3 -2 6 -13 5 -11 0 -14 -3 -6 -6z"/>
</g>
</svg>
