<?xml version="1.0" standalone="no"?>
<!DOCTYPE svg PUBLIC "-//W3C//DTD SVG 20010904//EN"
 "http://www.w3.org/TR/2001/REC-SVG-20010904/DTD/svg10.dtd">
<svg version="1.0" xmlns="http://www.w3.org/2000/svg"
 width="312.000000pt" height="312.000000pt" viewBox="0 0 312.000000 312.000000"
 preserveAspectRatio="xMidYMid meet">
<metadata>
Created by potrace 1.11, written by Peter Selinger 2001-2013
</metadata>
<g transform="translate(0.000000,312.000000) scale(0.100000,-0.100000)"
fill="#000000" stroke="none">
<path d="M2219 1916 c-5 -6 -9 -6 -9 -2 0 5 -8 2 -17 -5 -14 -12 -15 -12 -9 0
6 8 0 7 -18 -4 -20 -14 -26 -14 -26 -4 0 11 -2 11 -8 1 -5 -7 -26 -22 -48 -34
-21 -11 -46 -29 -55 -39 -9 -10 -19 -16 -23 -12 -3 3 -6 1 -6 -5 0 -6 -12 -25
-27 -43 -16 -18 -21 -29 -13 -24 11 6 10 3 -2 -12 -10 -11 -19 -32 -20 -46 -2
-18 -7 -26 -16 -22 -8 3 -10 0 -5 -8 10 -16 11 -67 1 -67 -5 0 -4 -8 1 -19 6
-10 7 -21 4 -25 -3 -3 0 -6 8 -6 11 0 11 -2 -1 -10 -13 -9 -13 -10 0 -10 13 0
13 -1 0 -10 -11 -7 -12 -10 -2 -10 8 0 12 -6 9 -12 -2 -7 3 -19 12 -26 10 -8
10 -11 2 -6 -8 4 1 -14 18 -40 18 -26 39 -50 47 -53 8 -3 12 -9 9 -13 -6 -9
114 -70 143 -73 12 -1 22 -4 22 -7 0 -3 36 -6 80 -6 58 -1 78 1 73 10 -4 6 1
5 10 -3 9 -7 17 -10 17 -5 0 5 19 10 42 10 23 1 44 6 46 13 2 6 8 9 13 5 8 -5
13 9 10 29 0 4 3 7 7 7 4 0 8 10 9 22 1 11 8 25 15 29 7 5 9 9 4 9 -5 0 -4 6
2 13 13 16 -3 57 -23 57 -8 0 -14 -3 -14 -7 3 -20 -2 -34 -11 -28 -5 3 -10 -1
-10 -10 0 -8 -7 -18 -15 -21 -8 -4 -15 -12 -15 -20 0 -8 -8 -14 -17 -14 -9 0
-13 -3 -10 -6 8 -9 -55 -43 -67 -37 -4 3 -12 -1 -17 -8 -7 -11 -9 -11 -9 -1 0
7 -5 10 -11 6 -6 -3 -15 0 -20 7 -5 8 -9 9 -9 3 0 -7 -11 -9 -25 -6 -14 2 -25
9 -25 14 0 5 -4 7 -9 4 -5 -4 -29 12 -52 34 -24 22 -39 40 -34 40 6 0 1 7 -9
15 -11 8 -16 15 -12 15 5 0 1 12 -9 26 -9 14 -14 28 -11 31 2 3 1 16 -4 29 -6
15 -6 26 1 30 6 3 6 10 1 17 -12 15 -7 109 7 135 6 11 7 22 4 26 -3 3 -1 6 6
6 7 0 9 5 6 10 -3 6 -1 10 5 10 6 0 9 4 6 8 -6 10 48 72 63 72 6 0 11 4 11 9
0 13 47 24 113 26 58 2 60 1 108 -46 28 -27 48 -52 46 -57 -3 -4 1 -16 9 -26
10 -15 16 -16 27 -8 8 7 17 8 22 4 4 -4 3 3 -4 15 -6 12 -11 26 -10 30 1 4 0
10 -1 13 -1 3 -3 22 -4 44 -1 23 -9 44 -20 51 -33 25 -236 41 -257 21z"/>
<path d="M25 1901 c-3 -8 0 -19 6 -25 9 -8 10 -8 4 2 -6 11 -3 11 13 1 12 -7
19 -16 16 -20 -2 -4 6 -5 18 -1 14 3 19 2 14 -6 -4 -7 -3 -12 3 -12 5 0 13
-10 17 -22 12 -35 11 -338 -1 -338 -6 0 -5 -3 1 -8 6 -4 10 -16 8 -27 -2 -11
-5 -37 -8 -57 -5 -44 -25 -67 -59 -70 -16 -1 -24 -7 -22 -18 2 -8 4 -17 4 -20
1 -3 54 -5 118 -5 112 1 116 2 118 22 1 12 -1 22 -4 21 -3 0 -10 1 -16 2 -5 1
-19 3 -30 4 -11 0 -25 13 -32 28 -16 32 -26 131 -12 123 5 -4 6 3 1 17 -5 13
-8 57 -7 98 1 41 -3 83 -8 94 -7 14 -6 16 3 11 10 -6 11 -1 6 19 -3 14 -4 26
-2 26 8 0 49 -43 71 -74 11 -15 32 -42 48 -58 15 -17 27 -35 27 -41 0 -6 3 -7
7 -3 4 3 12 -2 17 -13 11 -18 47 -63 113 -139 18 -20 33 -44 33 -52 0 -13 1
-13 10 0 9 13 10 13 11 0 1 -8 1 -18 0 -22 0 -5 6 -8 14 -8 8 0 15 -5 15 -11
0 -14 47 -59 61 -59 5 0 9 5 9 11 0 5 5 7 10 4 7 -4 9 11 7 45 -2 28 0 53 4
56 5 2 4 16 -1 29 -6 15 -6 27 0 30 6 3 6 15 0 30 -6 15 -6 27 0 30 6 3 6 15
0 30 -6 15 -6 27 0 30 6 3 6 15 0 30 -6 15 -6 27 0 30 6 3 6 15 0 30 -6 16 -6
27 1 31 6 4 6 11 -2 20 -6 8 -7 14 -2 14 5 0 8 18 6 40 -1 26 2 38 9 34 7 -4
7 0 0 12 -5 11 -7 26 -4 34 6 16 28 41 37 40 3 0 7 1 10 1 3 1 10 2 15 3 25 3
10 35 -18 41 -13 2 -20 0 -17 -6 4 -5 1 -9 -4 -9 -6 0 -11 3 -11 8 0 11 -144
8 -152 -3 -5 -6 -8 -5 -8 3 0 6 -4 12 -8 12 -4 0 -8 -9 -8 -20 0 -14 9 -23 26
-27 31 -9 37 -10 51 -12 5 0 7 -5 4 -11 -3 -5 -2 -10 3 -10 11 0 11 0 17 -182
2 -86 1 -159 -4 -162 -4 -3 -14 6 -21 19 -7 14 -17 25 -22 25 -5 0 -7 4 -4 8
3 5 -6 15 -19 22 -14 7 -25 17 -25 21 0 5 -11 19 -25 33 -14 14 -25 27 -25 30
0 3 -12 18 -27 34 -16 16 -55 60 -88 98 -100 115 -115 127 -163 128 -23 1 -42
-1 -42 -4 0 -3 -9 -6 -20 -6 -11 0 -20 3 -20 6 0 13 -40 5 -45 -9z"/>
<path d="M776 1909 c2 -4 0 -10 -6 -14 -5 -3 -10 -12 -10 -18 0 -8 3 -8 9 1 6
11 10 10 15 -3 3 -10 12 -15 21 -11 9 3 19 -3 26 -16 15 -28 19 -78 7 -78 -5
0 -6 -5 -2 -11 10 -17 12 -79 2 -85 -4 -3 -5 -11 -1 -17 11 -17 11 -57 1 -63
-4 -3 -5 -11 -1 -17 11 -16 12 -78 2 -98 -5 -9 -5 -19 -2 -23 11 -10 14 -76 4
-76 -5 0 -7 -9 -4 -20 3 -12 0 -20 -6 -20 -7 0 -10 -4 -6 -9 3 -5 -9 -11 -27
-13 -25 -2 -33 -8 -33 -23 0 -19 6 -20 160 -18 203 3 208 3 222 15 7 6 19 8
27 5 8 -3 17 1 20 9 3 8 12 14 21 14 8 0 15 5 15 10 0 6 6 10 13 10 8 0 25 21
40 48 23 43 26 67 15 123 -7 30 -44 66 -83 80 -22 8 -46 21 -53 29 -11 13 -12
13 -9 0 2 -8 2 -12 0 -7 -3 4 -8 5 -12 3 -4 -3 -8 1 -8 8 0 9 11 13 28 12 28
-2 79 34 79 55 0 6 4 8 9 5 11 -7 18 11 17 44 -1 14 4 28 9 32 6 5 6 8 -1 8
-6 0 -10 11 -9 24 2 14 -3 27 -12 30 -8 3 -11 10 -8 16 3 5 -1 10 -9 10 -9 0
-16 4 -16 9 0 9 -47 28 -85 34 -11 1 -26 6 -32 10 -7 5 -13 4 -13 0 0 -5 -24
-6 -54 -3 -30 3 -52 2 -50 -2 3 -4 0 -8 -5 -8 -6 0 -11 3 -11 8 0 4 -33 7 -74
7 -41 0 -72 -3 -69 -7 2 -5 -1 -8 -6 -8 -6 0 -11 4 -11 8 0 4 -9 8 -19 8 -11
0 -18 -4 -15 -7z m312 -66 c13 -10 23 -21 21 -24 -2 -3 2 -13 10 -22 7 -9 11
-24 7 -32 -3 -8 0 -15 7 -15 7 0 8 -3 2 -8 -5 -4 -10 -13 -11 -19 -1 -7 -2
-22 -2 -34 -1 -11 -6 -17 -12 -14 -5 3 -10 2 -10 -4 0 -14 -51 -39 -72 -36
-10 2 -18 0 -18 -5 0 -4 -8 -6 -17 -4 -16 4 -18 17 -16 102 2 133 2 134 13
127 6 -3 10 -1 10 5 0 16 59 5 88 -17z m18 -280 c14 -9 30 -25 36 -37 16 -30
17 -106 2 -141 -7 -16 -13 -26 -14 -22 0 4 -10 -3 -22 -16 -29 -29 -89 -33
-113 -7 -19 21 -28 140 -11 140 7 0 8 3 1 8 -9 6 -11 37 -6 91 1 18 93 7 127
-16z"/>
<path d="M1384 1894 c0 -18 5 -24 22 -24 30 0 54 -25 55 -58 4 -114 1 -322 -4
-335 -3 -9 -3 -19 2 -21 4 -3 7 -15 5 -28 -1 -13 -3 -35 -3 -50 -1 -35 -26
-58 -62 -58 -18 0 -28 -4 -24 -10 3 -5 1 -10 -5 -10 -7 0 -7 -4 1 -12 9 -10
68 -13 238 -12 260 2 244 1 236 14 -3 6 -1 10 4 10 6 0 10 3 9 8 -3 11 13 86
21 97 4 6 2 20 -4 33 l-13 24 -21 -23 c-11 -13 -21 -28 -21 -34 0 -7 -15 -28
-32 -46 -31 -32 -37 -34 -93 -33 -81 1 -80 1 -93 29 -9 19 -9 25 1 25 8 0 8 3
2 8 -6 4 -11 21 -11 37 0 17 5 33 11 37 7 5 7 8 -1 8 -12 0 -13 88 -1 107 4 6
3 14 -1 17 -10 6 -10 46 1 62 3 6 3 14 0 18 -11 10 -11 56 -1 62 4 3 5 11 1
17 -10 17 -11 67 0 67 4 0 6 4 2 9 -9 16 34 49 56 44 23 -6 26 19 4 37 -9 7
-15 8 -15 2 0 -6 -13 -7 -35 -2 -24 5 -35 4 -35 -4 0 -6 -5 -4 -10 4 -7 11
-10 11 -10 2 0 -7 -5 -10 -11 -7 -15 10 -119 11 -119 2 0 -5 -6 -5 -12 0 -24
14 -34 11 -34 -13z"/>
<path d="M2610 1909 c0 -4 -7 -6 -16 -5 -9 0 -18 -6 -19 -15 -2 -11 3 -15 14
-13 9 2 27 -5 41 -15 l25 -20 1 -243 c0 -230 -1 -244 -19 -260 -11 -10 -30
-18 -42 -18 -26 0 -41 -25 -22 -37 19 -12 487 -10 488 2 1 6 1 13 0 18 0 4 3
7 7 7 7 0 13 29 15 78 1 12 4 22 8 22 4 0 6 8 5 18 -2 9 -8 17 -14 16 -7 -1
-19 -2 -27 -2 -8 -1 -15 -7 -15 -13 0 -5 6 -7 13 -3 12 8 -3 -14 -35 -50 -10
-11 -18 -23 -18 -28 0 -4 -9 -8 -20 -8 -11 0 -20 -4 -20 -9 0 -16 -138 -8
-155 9 -16 17 -23 99 -10 120 5 9 4 11 -3 6 -7 -4 -12 -3 -12 3 0 5 6 12 13
14 9 4 9 6 -1 6 -10 1 -10 6 -2 21 6 11 7 20 2 20 -5 0 -8 10 -7 23 2 20 7 22
61 23 59 0 110 -18 99 -36 -4 -6 -1 -10 4 -10 6 0 10 -5 9 -11 -4 -17 39 -21
46 -4 3 8 2 15 -3 15 -7 0 -8 46 -1 75 1 6 1 15 0 20 -1 6 -3 23 -4 40 -2 43
-33 47 -47 6 -7 -19 -20 -33 -32 -36 -43 -9 -62 -9 -74 -2 -8 5 -13 4 -13 -2
0 -16 -16 -13 -34 5 -19 18 -21 38 -3 28 8 -5 8 -2 -2 9 -11 14 -11 17 0 17
10 0 10 3 1 12 -16 16 -15 31 1 22 8 -5 8 -2 -2 9 -7 9 -9 17 -4 17 5 0 9 9 9
19 0 11 -4 17 -8 15 -4 -3 -8 -1 -8 5 0 5 6 12 13 14 7 3 8 6 1 6 -18 1 -4 51
15 52 75 6 134 -2 158 -21 14 -11 23 -20 19 -20 -4 0 -1 -10 6 -22 7 -13 11
-26 10 -29 0 -4 8 -9 18 -12 11 -3 21 0 21 6 5 40 3 77 -4 77 -4 0 -3 8 2 19
7 13 7 23 -2 33 -14 17 -51 33 -42 18 3 -5 -1 -7 -9 -4 -22 9 -176 10 -176 2
0 -4 -6 -5 -13 -3 -19 8 -187 11 -187 4z"/>
</g>
</svg>
